<svg xmlns="http://www.w3.org/2000/svg" viewBox="0 0 24 24" width="24" height="24">
<path fill="#000000" d="M5,10.2 C5.994,10.2 6.8,10.994 6.8,12 C6.8,13.006 5.994,13.8 5,13.8 C4.006,13.8 3.2,13.006 3.2,12 C3.2,10.994 4.006,10.2 5,10.2 Z M12,10.2 C12.994,10.2 13.8,10.994 13.8,12 C13.8,13.006 12.994,13.8 12,13.8 C11.006,13.8 10.2,13.006 10.2,12 C10.2,10.994 11.006,10.2 12,10.2 Z M19,10.2 C19.994,10.2 20.8,10.994 20.8,12 C20.8,13.006 19.994,13.8 19,13.8 C18.006,13.8 17.2,13.006 17.2,12 C17.2,10.994 18.006,10.2 19,10.2 Z"/>
</svg>
